<svg width="43" height="53" viewBox="0 0 43 53" fill="none" xmlns="http://www.w3.org/2000/svg">
<path d="M40.6994 0.00296021V14.4054H16.6036C16.3127 14.4022 16.0241 14.4565 15.7543 14.5655C15.4845 14.6744 15.239 14.8356 15.0318 15.0399C14.8634 15.2067 14.7259 15.402 14.6257 15.617C14.8498 11.9687 16.2323 8.48705 18.572 5.67877C20.9117 2.87048 24.0865 0.882096 27.6343 0.00296021H40.6994Z" fill="url(#paint0_linear_123_319)"/>
<path d="M28.0743 36.3268C27.8755 39.9934 26.5075 43.5 24.1706 46.3325C21.8338 49.165 18.6512 51.1746 15.0891 52.0666H2.62378V37.6672H26.0279C26.3257 37.6711 26.6212 37.6147 26.8966 37.5014C27.16 37.394 27.3991 37.2346 27.5996 37.0327C27.8012 36.8297 27.9623 36.5901 28.0743 36.3268Z" fill="url(#paint1_linear_123_319)"/>
<path d="M42.6372 35.4611C42.6475 37.6823 42.204 39.8822 41.3337 41.9258C41.1567 42.3372 40.9623 42.7426 40.7513 43.1374C40.7453 43.154 40.7392 43.16 40.7392 43.1713C40.7373 43.1798 40.7334 43.1878 40.7279 43.1946C38.9377 46.579 36.0379 49.2447 32.5152 50.7444C30.467 51.6274 28.2582 52.0769 26.0278 52.0644H15.0943L15.2201 52.0305C18.7525 51.1162 21.9022 49.1014 24.2132 46.2777C26.5242 43.454 27.8765 39.968 28.0743 36.3246V36.3185C28.2833 35.7747 28.2873 35.1735 28.0856 34.627C28.0803 34.6157 28.0743 34.5984 28.0682 34.5871C27.9595 34.3243 27.8003 34.0855 27.5996 33.8841C27.3939 33.6782 27.1485 33.5162 26.8784 33.408C26.6082 33.2998 26.3188 33.2478 26.0278 33.2549H16.6035C16.1348 33.2549 15.6662 33.2384 15.2028 33.1924C15.1862 33.1924 15.1689 33.1864 15.1463 33.1864C13.4151 33.0493 11.7189 32.6246 10.1275 31.9296C6.16752 30.2249 3.01434 27.0634 1.32022 23.099C1.09714 22.5882 0.902455 22.0655 0.737048 21.5333C0.242537 19.9398 -0.00595004 18.2801 0.000161064 16.6116C-0.00976942 14.3854 0.439605 12.181 1.32022 10.1364C3.02417 6.18406 6.17516 3.03308 10.1275 1.32912C11.281 0.824062 12.4924 0.463191 13.7343 0.254683C13.7803 0.242628 13.8142 0.237349 13.8368 0.231321C13.8482 0.228431 13.8598 0.226662 13.8714 0.226045C14.7742 0.0750692 15.6881 -0.000540334 16.6035 2.90647e-06H27.6342C24.0863 0.87914 20.9115 2.86753 18.5719 5.67581C16.2322 8.4841 14.8497 11.9657 14.6257 15.6141C14.6015 15.6564 14.5806 15.7005 14.5631 15.7459C14.4503 16.0193 14.3939 16.3128 14.3974 16.6086C14.3941 16.9184 14.4522 17.2256 14.5684 17.5128C14.5805 17.5447 14.5959 17.5753 14.6144 17.604C14.7128 17.8329 14.8546 18.0406 15.0318 18.2158C15.2381 18.4212 15.4835 18.5831 15.7534 18.692C16.0234 18.8011 16.3124 18.8548 16.6035 18.8502H26.0278C28.2534 18.8384 30.4581 19.2798 32.5076 20.1477C36.4925 21.8228 39.6623 24.9927 41.3375 28.9775C41.5589 29.494 41.7517 30.0222 41.9154 30.5598C42.3994 32.1483 42.6427 33.8004 42.6372 35.4611Z" fill="url(#paint2_linear_123_319)"/>
<g style="mix-blend-mode:multiply" opacity="0.16">
<g style="mix-blend-mode:multiply" opacity="0.16">
<path d="M28.0741 36.3268C27.8754 39.9934 26.5073 43.5 24.1705 46.3325C21.8337 49.165 18.651 51.1746 15.089 52.0666H11.614C14.5301 50.6943 17.1044 48.6905 19.1503 46.2005C21.1964 43.7103 22.6627 40.7963 23.4433 37.6694H26.0263C26.3241 37.6733 26.6196 37.6169 26.895 37.5037C27.1584 37.3962 27.3975 37.2369 27.598 37.035C27.8004 36.8314 27.962 36.591 28.0741 36.3268Z" fill="black"/>
</g>
</g>
<g style="mix-blend-mode:multiply" opacity="0.16">
<g style="mix-blend-mode:multiply" opacity="0.16">
<path d="M30.7665 0.00296021C27.5484 2.39747 21.0159 7.92414 19.3696 14.4054H16.6036C16.3127 14.4022 16.0241 14.4565 15.7543 14.5655C15.4845 14.6744 15.239 14.8356 15.0318 15.0399C14.8634 15.2067 14.7259 15.402 14.6257 15.617C14.8498 11.9687 16.2323 8.48705 18.572 5.67877C20.9117 2.87048 24.0865 0.882096 27.6343 0.00296021H30.7665Z" fill="black"/>
</g>
</g>
<g style="mix-blend-mode:multiply" opacity="0.25">
<g style="mix-blend-mode:multiply" opacity="0.25">
<path d="M40.6995 4.31203V14.4085H20.5759C22.2501 14.2427 23.9304 14.1289 25.6053 14.0483C27.2803 13.9677 28.9605 13.8976 30.6347 13.8712C32.3149 13.82 33.9899 13.826 35.6701 13.8087C37.177 13.826 38.6704 13.826 40.1743 13.8599C40.1909 13.2029 40.2029 12.5451 40.2308 11.8829C40.2594 11.042 40.2881 10.2019 40.3401 9.36176C40.4229 7.67852 40.5337 5.99225 40.6995 4.31203Z" fill="black"/>
</g>
</g>
<g style="mix-blend-mode:screen" opacity="0.7">
<g style="mix-blend-mode:screen" opacity="0.7">
<path d="M42.637 35.4612C42.6474 37.6823 42.2038 39.8822 41.3336 41.9259C41.1565 42.3373 40.9621 42.7427 40.7511 43.1375C40.8084 42.983 40.9968 42.4909 41.2785 41.7367C41.715 40.4541 42.0007 39.1252 42.13 37.7766C42.2113 36.8833 42.2287 35.9853 42.182 35.0896C42.1246 34.0991 41.987 33.1149 41.7706 32.1467C41.6584 31.6459 41.5191 31.1516 41.3531 30.6661C41.1588 30.1636 40.9644 29.6541 40.77 29.1455C40.3338 28.1455 39.7975 27.192 39.1696 26.2998C38.5579 25.3956 37.8505 24.56 37.0599 23.8072C36.2983 23.0768 35.4719 22.417 34.5908 21.8362C33.7551 21.2935 32.8779 20.8176 31.9672 20.413C31.147 20.06 30.3006 19.7713 29.4356 19.5494C28.1189 19.2229 26.7727 19.0296 25.4174 18.9723C24.4228 18.897 23.8569 18.8525 23.8569 18.8525H26.0231C28.2487 18.8406 30.4534 19.2821 32.5029 20.15C36.4878 21.8252 39.6576 24.995 41.3328 28.9798C41.5542 29.4963 41.7471 30.0245 41.9107 30.5621C42.396 32.1497 42.6408 33.801 42.637 35.4612Z" fill="white"/>
</g>
</g>
<g style="mix-blend-mode:multiply" opacity="0.25">
<g style="mix-blend-mode:multiply" opacity="0.25">
<path d="M13.2883 52.0644H2.62378V41.1768C2.75488 42.0855 2.83473 42.9851 2.92063 43.8976C2.98919 44.8062 3.05249 45.7149 3.09242 46.6176C3.14968 47.5263 3.161 48.4357 3.19491 49.3444L3.21826 51.4699C3.90919 51.4812 4.60086 51.4812 5.29254 51.4985C6.17862 51.5332 7.0647 51.5445 7.95603 51.6017C9.73346 51.6876 11.5109 51.8187 13.2883 52.0644Z" fill="black"/>
</g>
</g>
<g style="mix-blend-mode:screen" opacity="0.7">
<g style="mix-blend-mode:screen" opacity="0.7">
<path d="M15.1463 33.1863C13.4151 33.0493 11.7189 32.6245 10.1275 31.9295C6.16752 30.2249 3.01434 27.0634 1.32022 23.0989C1.09714 22.5881 0.902455 22.0655 0.737048 21.5332C0.242537 19.9397 -0.00595004 18.2801 0.000161064 16.6116C-0.00976942 14.3853 0.439605 12.181 1.32022 10.1363C3.02417 6.18398 6.17516 3.033 10.1275 1.32905C11.281 0.823983 12.4924 0.463116 13.7343 0.254608C13.1113 0.404416 12.4969 0.587517 11.8936 0.803128C7.80085 2.26489 4.41466 5.22429 2.41802 9.08448C1.09763 11.6193 0.476082 14.46 0.617249 17.3146C0.661527 18.7489 0.909884 20.1697 1.35487 21.534C1.48598 21.8821 1.61182 22.2309 1.73765 22.5738L1.82883 22.8307L1.85216 22.894C1.85743 22.9047 1.86124 22.9161 1.86348 22.9279L1.92073 23.0537L2.13772 23.5397C2.42635 24.1688 2.75661 24.7779 3.12628 25.3631C3.82709 26.4772 4.6538 27.5069 5.5901 28.4319C6.43993 29.2599 7.3703 30.001 8.36738 30.6441C9.21857 31.1842 10.1112 31.6561 11.0369 32.0554C11.7593 32.3625 12.5044 32.6129 13.2657 32.8043C13.8857 32.9632 14.5134 33.0907 15.1463 33.1863Z" fill="white"/>
</g>
</g>
<g style="mix-blend-mode:screen" opacity="0.7">
<g style="mix-blend-mode:screen" opacity="0.7">
<path d="M27.6341 0.00296021C24.0863 0.882096 20.9115 2.87048 18.5718 5.67877C16.2321 8.48705 14.8496 11.9687 14.6255 15.617C14.6014 15.6594 14.5805 15.7034 14.563 15.7489L14.6089 15.6057C14.5916 15.1536 14.5916 14.697 14.5916 14.2397C14.6255 13.7831 14.6768 13.3257 14.7227 12.8623C14.7981 12.4103 14.8998 11.9582 14.9857 11.5061C15.1002 11.054 15.2547 10.62 15.3858 10.1687C15.5365 9.72868 15.7233 9.30524 15.9057 8.87124C16.1001 8.44855 16.3291 8.04243 16.5348 7.62501C16.7744 7.21965 17.0374 6.83688 17.2883 6.43679C17.5625 6.06006 17.8481 5.68785 18.1344 5.32166C18.4426 4.96753 18.7688 4.63073 19.083 4.28715C19.4259 3.96768 19.7611 3.64746 20.1175 3.33854L21.2319 2.48713C21.6207 2.2302 22.0148 1.98984 22.4148 1.74421C22.8323 1.53851 23.2384 1.3155 23.655 1.11507L24.9472 0.612506C25.3993 0.480649 25.8386 0.349547 26.2846 0.235773C26.7307 0.145358 27.1828 0.0715255 27.6341 0.00296021Z" fill="white"/>
</g>
</g>
<g style="mix-blend-mode:screen" opacity="0.7">
<g style="mix-blend-mode:screen" opacity="0.7">
<path d="M28.1776 36.3186C28.1829 36.7872 28.1829 37.2446 28.1716 37.7072C28.1429 38.1706 28.0857 38.6279 28.0344 39.0906C27.9546 39.5477 27.8632 40.005 27.7602 40.4626C27.6456 40.9147 27.4972 41.36 27.3654 41.8053C27.2147 42.2513 27.0173 42.674 26.8379 43.1088C26.6443 43.5375 26.4213 43.9489 26.2035 44.3663C25.9692 44.7717 25.707 45.1605 25.4553 45.5606C25.1811 45.9433 24.8947 46.314 24.6092 46.6862C24.301 47.0411 23.9748 47.3839 23.6606 47.732C23.3177 48.0583 22.9825 48.3785 22.6261 48.6927L21.5109 49.5502C21.1221 49.8073 20.7279 50.0584 20.328 50.3036L19.0878 50.9493L17.7903 51.4692L16.4582 51.858C16.1154 51.9266 15.7801 51.9951 15.441 52.0524L15.5164 52.0637L15.1216 52.1097C15.1163 52.1157 15.1042 52.1157 15.0989 52.1157L15.0929 52.0637L15.0876 52.0125L15.2187 52.0298C18.7511 51.1155 21.9009 49.1006 24.2119 46.2769C26.5228 43.4532 27.8751 39.9673 28.0729 36.3238V36.3178C28.1838 36.0458 28.2382 35.7541 28.2326 35.4604C28.274 35.7471 28.2553 36.0394 28.1776 36.3186Z" fill="white"/>
</g>
</g>
<defs>
<linearGradient id="paint0_linear_123_319" x1="40.6994" y1="7.80999" x2="15.6947" y2="7.80999" gradientUnits="userSpaceOnUse">
<stop stop-color="#EE0979"/>
<stop offset="0.322" stop-color="#F32555"/>
<stop offset="1" stop-color="#FF6A00"/>
</linearGradient>
<linearGradient id="paint1_linear_123_319" x1="1.63121" y1="44.1967" x2="25.6565" y2="44.1967" gradientUnits="userSpaceOnUse">
<stop stop-color="#EE0979"/>
<stop offset="0.322" stop-color="#F32555"/>
<stop offset="1" stop-color="#FF6A00"/>
</linearGradient>
<linearGradient id="paint2_linear_123_319" x1="21.3187" y1="-0.416518" x2="21.3187" y2="53.4704" gradientUnits="userSpaceOnUse">
<stop stop-color="#FCC400"/>
<stop offset="0.162" stop-color="#FBC000"/>
<stop offset="0.307" stop-color="#FBB500"/>
<stop offset="0.446" stop-color="#FBA300"/>
<stop offset="0.581" stop-color="#FA8900"/>
<stop offset="0.712" stop-color="#FA6800"/>
<stop offset="0.842" stop-color="#F93F00"/>
<stop offset="0.967" stop-color="#F81000"/>
<stop offset="1" stop-color="#F80300"/>
</linearGradient>
</defs>
</svg>
