<svg width="87" height="125" viewBox="0 0 87 125" fill="none" xmlns="http://www.w3.org/2000/svg">
<path d="M68.8907 31.0692C78.0382 23.749 82.8569 14.57 79.6537 10.5674C76.4504 6.56467 66.4383 9.25414 57.291 16.5744C48.1436 23.8946 43.3249 33.0736 46.528 37.0763C49.7311 41.0789 59.7432 38.3895 68.8907 31.0692Z" fill="#29C16E"/>
<path d="M38.2115 38.2578C40.9646 35.5047 37.0688 27.1452 29.51 19.5863C21.9512 12.0276 13.5917 8.13176 10.8386 10.8849C8.0855 13.638 11.9813 21.9975 19.5401 29.5563C27.0989 37.1151 35.4584 41.0109 38.2115 38.2578Z" fill="#29C16E"/>
<path d="M75.2601 78.9306C79.2631 75.7279 76.5734 65.7158 69.2533 56.5682C61.9332 47.4208 52.754 42.6021 48.7514 45.8052C44.7487 49.0084 47.4382 59.0204 54.7584 68.1676C62.0784 77.3151 71.2577 82.1338 75.2601 78.9306Z" fill="#EF3C56"/>
<path d="M8.97485 82.3805C8.97485 91.9093 12.7602 101.048 19.498 107.785C26.2358 114.524 35.3743 118.309 44.9031 118.309C64.7462 118.309 94.3648 85.762 75.4991 79.6235C54.8007 72.8901 45.2549 47.1494 40.965 46.6684C21.2464 44.4556 8.97485 62.538 8.97485 82.3805Z" fill="#EF3C56"/>
<path d="M0.0174107 5.42264C0.0275621 13.1694 2.10852 20.7727 6.04479 27.4449C9.98101 34.1171 15.6294 39.6157 22.4051 43.3713C18.854 45.3407 15.5959 47.7971 12.7252 50.6689C6.28531 57.1024 2.03162 65.3983 0.566109 74.3822C-0.899406 83.3662 0.497461 92.5839 4.55903 100.73C8.62058 108.877 15.1411 115.54 23.198 119.777C31.2549 124.013 40.4401 125.609 49.4537 124.337C58.4674 123.066 66.8533 118.993 73.4244 112.693C79.9955 106.394 84.4188 98.1876 86.0691 89.2355C87.7194 80.2834 86.5129 71.0391 82.6197 62.8107C78.7271 54.5824 72.3449 47.7865 64.3773 43.3848C71.1621 39.6346 76.8183 34.1361 80.7593 27.4605C84.7003 20.7849 86.7821 13.1759 86.788 5.42383C86.788 4.71159 86.6481 4.00629 86.3754 3.34823C86.1033 2.69017 85.7037 2.09223 85.2002 1.58857C84.6962 1.08491 84.0983 0.685402 83.4401 0.412858C82.7826 0.140313 82.0773 7.67153e-05 81.3649 0.000154259C75.665 -0.0150947 70.0182 1.10036 64.7527 3.28195C59.4866 5.46355 54.7055 8.66793 50.6862 12.7097C47.8146 15.5804 45.3584 18.8386 43.3891 22.3896C39.6366 15.6113 34.1387 9.96073 27.4658 6.02409C20.7929 2.08741 13.1881 0.00810638 5.44049 0.00191949C4.72847 0.00176445 4.02341 0.141858 3.36553 0.414191C2.70765 0.686523 2.10986 1.08576 1.60628 1.58912C1.1027 2.09248 0.703202 2.69011 0.430583 3.34786C0.157963 4.00562 0.0175657 4.71063 0.0174107 5.42264ZM49.3782 37.4022C50.5857 30.9519 53.7148 25.0172 58.355 20.3768C62.995 15.7365 68.9298 12.6071 75.3799 11.3994C74.1634 17.8457 71.031 23.7754 66.393 28.4142C61.7543 33.053 55.8245 36.1854 49.3782 37.4022ZM66.4 58.3491C71.0417 62.9836 74.1723 68.9149 75.3799 75.362C68.9369 74.1438 63.0097 71.0126 58.3731 66.3757C53.7364 61.7388 50.6046 55.8125 49.3865 49.3692C55.834 50.5767 61.7649 53.7072 66.4 58.3491ZM20.3935 58.3384C25.2585 53.4479 31.5617 50.2436 38.3798 49.1951C39.6579 58.6044 43.9855 67.3354 50.6999 74.0499C57.4142 80.7644 66.1445 85.0926 75.554 86.3711C74.7613 91.4477 72.7775 96.2646 69.765 100.427C66.753 104.589 62.7978 107.98 58.2233 110.319C53.649 112.66 48.5856 113.883 43.4474 113.89C38.3093 113.897 33.2426 112.687 28.662 110.359C24.0813 108.032 20.117 104.652 17.0935 100.498C14.07 96.3437 12.0732 91.5321 11.2667 86.4579C10.46 81.3836 10.8666 76.1901 12.4529 71.303C14.0393 66.4158 16.7604 61.9743 20.3935 58.3408V58.3384ZM11.422 11.407C17.8654 12.625 23.7923 15.7568 28.4292 20.3937C33.0661 25.0307 36.1979 30.9575 37.4159 37.401C30.9728 36.1827 25.0464 33.0509 20.4099 28.4139C15.7733 23.777 12.642 17.8503 11.4243 11.407H11.422Z" fill="#0E1E28"/>
</svg>
