<svg width="78" height="104" viewBox="0 0 78 104" fill="none" xmlns="http://www.w3.org/2000/svg">
<path d="M66.11 20.7103C63.028 20.7138 60.0731 21.9397 57.8944 24.1191C55.7152 26.2985 54.4893 29.2534 54.4864 32.3353V61.2908C54.519 63.3629 54.1394 65.4205 53.3691 67.3442C52.5987 69.2679 51.4536 71.0189 50 72.4958C48.5462 73.9728 46.8133 75.1456 44.9019 75.9462C42.9906 76.7467 40.9391 77.1589 38.867 77.1589C36.7948 77.1589 34.7433 76.7467 32.832 75.9462C30.9207 75.1456 29.1878 73.9728 27.7342 72.4958C26.2805 71.0189 25.1352 69.2679 24.365 67.3442C23.5947 65.4205 23.2149 63.3629 23.2476 61.2908V32.3353C23.2476 29.2525 22.0229 26.296 19.8431 24.1161C17.6632 21.9362 14.7066 20.7115 11.6238 20.7115C8.54099 20.7115 5.58442 21.9362 3.40452 24.1161C1.22464 26.296 0 29.2525 0 32.3353V64.3567C-1.52114e-07 69.4606 1.00532 74.5149 2.95857 79.2305C4.91182 83.9462 7.77476 88.2306 11.3839 91.84C14.993 95.449 19.2777 98.312 23.9932 100.265C28.7088 102.218 33.7629 103.224 38.867 103.224C43.9711 103.224 49.0253 102.218 53.7409 100.265C58.4565 98.312 62.7409 95.449 66.3499 91.84C69.9593 88.2306 72.8223 83.9462 74.7752 79.2305C76.7286 74.5149 77.734 69.4606 77.734 64.3567V32.3353C77.7306 29.2534 76.5052 26.2985 74.326 24.1191C72.1468 21.9397 69.1919 20.7138 66.11 20.7103ZM72.6485 64.3542C72.6485 73.3139 69.0892 81.9061 62.754 88.2413C56.4189 94.5765 47.8264 98.1358 38.867 98.1358C29.9075 98.1358 21.3151 94.5765 14.9799 88.2413C8.64459 81.9061 5.08546 73.3139 5.08546 64.3542V32.3353C5.10035 30.6111 5.79572 28.9624 7.02031 27.7484C8.24486 26.5343 9.89941 25.8532 11.6238 25.8532C13.3482 25.8532 15.0027 26.5343 16.2273 27.7484C17.4518 28.9624 18.1472 30.6111 18.1621 32.3353V61.2908C18.1621 66.7821 20.3435 72.0486 24.2264 75.9316C28.1093 79.8145 33.3757 81.9957 38.867 81.9957C44.3583 81.9957 49.6248 79.8145 53.5078 75.9316C57.3902 72.0486 59.5719 66.7821 59.5719 61.2908V32.3353C59.5719 30.6013 60.2605 28.9382 61.4868 27.7121C62.7132 26.4858 64.376 25.797 66.11 25.797C67.8444 25.797 69.5072 26.4858 70.7336 27.7121C71.9594 28.9382 72.6485 30.6013 72.6485 32.3353V64.3542Z" fill="url(#paint0_linear_132:22)"/>
<path d="M36.3243 26.6367V60.1589C36.3243 60.8334 36.5922 61.4801 37.069 61.957C37.5458 62.4339 38.1926 62.7016 38.867 62.7016C39.5413 62.7016 40.1881 62.4339 40.665 61.957C41.1418 61.4801 41.4097 60.8334 41.4097 60.1589V26.6367C44.6927 26.0042 47.622 24.1707 49.6258 21.4943C51.6293 18.8179 52.5637 15.4908 52.2459 12.1626C51.9281 8.83435 50.3815 5.7441 47.9075 3.49511C45.4336 1.24615 42.2103 0 38.867 0C35.5236 0 32.3003 1.24615 29.8265 3.49511C27.3526 5.7441 25.8058 8.83435 25.4881 12.1626C25.1704 15.4908 26.1046 18.8179 28.1083 21.4943C30.112 24.1707 33.0413 26.0042 36.3243 26.6367ZM38.867 5.09092C40.5194 5.09092 42.1347 5.58093 43.5087 6.49898C44.8826 7.41704 45.9535 8.72189 46.5858 10.2485C47.2181 11.7752 47.3836 13.4551 47.0612 15.0758C46.7387 16.6965 45.943 18.1851 44.7745 19.3536C43.606 20.5219 42.1173 21.3176 40.4966 21.6399C38.8759 21.9623 37.196 21.7967 35.6694 21.1643C34.1428 20.5319 32.838 19.461 31.92 18.087C31.002 16.713 30.5121 15.0976 30.5122 13.4452C30.5148 11.2302 31.3959 9.10668 32.9622 7.5405C34.5284 5.97433 36.652 5.09335 38.867 5.09092Z" fill="url(#paint1_linear_132:22)"/>
<defs>
<linearGradient id="paint0_linear_132:22" x1="0" y1="61.9672" x2="77.734" y2="61.9672" gradientUnits="userSpaceOnUse">
<stop stop-color="#EC441E"/>
<stop offset="1" stop-color="#EE2A4A"/>
</linearGradient>
<linearGradient id="paint1_linear_132:22" x1="25.4272" y1="31.3508" x2="52.3067" y2="31.3508" gradientUnits="userSpaceOnUse">
<stop stop-color="#EC441E"/>
<stop offset="1" stop-color="#EE2A4A"/>
</linearGradient>
</defs>
</svg>
