<svg width="444" height="4078" viewBox="0 0 444 4078" fill="none" xmlns="http://www.w3.org/2000/svg">
<path d="M433.538 37.0419L433.479 36.9828C433.474 36.9795 433.47 36.975 433.468 36.9699L396.499 0L359.53 36.969C359.526 36.9733 359.524 36.979 359.519 36.9818L359.458 37.0409C353.805 42.7257 350.215 50.1369 349.257 58.0967C348.3 66.0565 350.031 74.108 354.174 80.9713C358.318 87.8346 364.637 93.116 372.126 95.9753C379.616 98.8347 387.846 99.1087 395.509 96.7529C396.154 96.5558 396.843 96.5558 397.488 96.7529C405.151 99.1077 413.381 98.8337 420.87 95.9739C428.359 93.1141 434.677 87.8332 438.821 80.9703C442.964 74.1075 444.695 66.0565 443.738 58.0972C442.781 50.1379 439.191 42.7267 433.538 37.0419ZM372.676 61.4205C372.496 61.6005 372.353 61.8143 372.256 62.0492C372.159 62.284 372.108 62.5361 372.109 62.7905C372.174 69.3154 374.018 75.6985 377.442 81.2534C377.52 81.3794 377.556 81.5269 377.545 81.6744C377.534 81.8219 377.476 81.9623 377.381 82.0754C377.285 82.1885 377.156 82.2683 377.012 82.3036C376.868 82.3389 376.717 82.3279 376.58 82.2721C374.006 81.1894 371.668 79.6156 369.696 77.6389C365.655 73.5972 363.383 68.1168 363.38 62.4015C363.376 56.6862 365.641 51.2028 369.677 47.1562L396.499 20.3363L423.32 47.1562C427.357 51.2024 429.622 56.6857 429.618 62.4015C429.615 68.1168 427.343 73.5972 423.301 77.6389C421.33 79.6156 418.991 81.1894 416.418 82.2721C416.281 82.3279 416.129 82.3389 415.986 82.3036C415.842 82.2683 415.713 82.1881 415.617 82.0754C415.522 81.9623 415.464 81.8219 415.453 81.674C415.442 81.5265 415.478 81.379 415.556 81.2529C418.98 75.6985 420.825 69.3154 420.892 62.7905C420.892 62.5361 420.841 62.284 420.743 62.0487C420.646 61.8134 420.502 61.6 420.322 61.42L407.635 47.9636C407.509 47.8581 407.35 47.8003 407.185 47.8003C407.021 47.8003 406.862 47.8581 406.736 47.9636C406.609 48.0686 406.524 48.2151 406.494 48.3769C406.465 48.5388 406.493 48.7054 406.574 48.8486C411.501 57.765 407.264 70.5722 400.199 77.6389L400.161 77.6762C399.186 78.6409 397.87 79.1817 396.498 79.1812C395.126 79.1808 393.81 78.639 392.836 77.6738L392.801 77.6389C385.733 70.5722 381.498 57.7664 386.426 48.8505C386.507 48.7073 386.535 48.5407 386.506 48.3789C386.476 48.217 386.391 48.0705 386.265 47.9655C386.139 47.86 385.979 47.8022 385.815 47.8022C385.651 47.8022 385.491 47.86 385.365 47.9655L372.676 61.4205Z" fill="#F53855"/>
<path fill-rule="evenodd" clip-rule="evenodd" d="M334.677 3716.8C370.875 3779.74 353.472 3864.32 309.819 3922.33C271.471 3973.3 199.743 3967.26 137.12 3979.36C71.8989 3991.97 -2.12907 4036.3 -51.8589 3992.25C-101.59 3948.21 -70.4396 3868.98 -61.9122 3803.1C-54.6229 3746.78 -53.9931 3683.33 -7.6296 3650.55C38.5335 3617.9 98.082 3639.95 153.592 3650.7C219.966 3663.54 300.972 3658.2 334.677 3716.8Z" fill="#891B1B"/>
</svg>
